<svg xmlns="http://www.w3.org/2000/svg" version="1.1" xmlns:xlink="http://www.w3.org/1999/xlink" xmlns:svgjs="http://svgjs.dev/svgjs" viewBox="0 0 800 800" opacity="1" width="800" height="800"><g stroke-width="2.5" stroke="hsl(214, 20%, 21%)" fill="none"><circle r="5.657894736842105" cx="0" cy="0" fill="hsl(214, 20%, 21%)" stroke="none" opacity="0.35"></circle><circle r="5.657894736842105" cx="200" cy="0" fill="hsl(214, 20%, 21%)" stroke="none" opacity="0.35"></circle><circle r="5.657894736842105" cx="400" cy="0" fill="hsl(214, 20%, 21%)" stroke="none" opacity="0.35"></circle><circle r="5.657894736842105" cx="600" cy="0" fill="hsl(214, 20%, 21%)" stroke="none" opacity="0.35"></circle><circle r="5.657894736842105" cx="800" cy="0" fill="hsl(214, 20%, 21%)" stroke="none" opacity="0.35"></circle><circle r="5.657894736842105" cx="0" cy="200" fill="hsl(214, 20%, 21%)" stroke="none" opacity="0.35"></circle><circle r="5.657894736842105" cx="200" cy="200" fill="hsl(214, 20%, 21%)" stroke="none"></circle><circle r="5.657894736842105" cx="400" cy="200" fill="hsl(214, 20%, 21%)" stroke="none" opacity="0.35"></circle><circle r="5.657894736842105" cx="600" cy="200" fill="hsl(214, 20%, 21%)" stroke="none" opacity="0.35"></circle><circle r="5.657894736842105" cx="800" cy="200" fill="hsl(214, 20%, 21%)" stroke="none" opacity="0.35"></circle><circle r="5.657894736842105" cx="0" cy="400" fill="hsl(214, 20%, 21%)" stroke="none" opacity="0.35"></circle><circle r="5.657894736842105" cx="200" cy="400" fill="hsl(214, 20%, 21%)" stroke="none"></circle><circle r="5.657894736842105" cx="400" cy="400" fill="hsl(214, 20%, 21%)" stroke="none"></circle><circle r="5.657894736842105" cx="600" cy="400" fill="hsl(214, 20%, 21%)" stroke="none"></circle><circle r="5.657894736842105" cx="800" cy="400" fill="hsl(214, 20%, 21%)" stroke="none" opacity="0.35"></circle><circle r="5.657894736842105" cx="0" cy="600" fill="hsl(214, 20%, 21%)" stroke="none" opacity="0.35"></circle><circle r="5.657894736842105" cx="200" cy="600" fill="hsl(214, 20%, 21%)" stroke="none"></circle><circle r="5.657894736842105" cx="400" cy="600" fill="hsl(214, 20%, 21%)" stroke="none" opacity="0.35"></circle><circle r="5.657894736842105" cx="600" cy="600" fill="hsl(214, 20%, 21%)" stroke="none"></circle><circle r="5.657894736842105" cx="800" cy="600" fill="hsl(214, 20%, 21%)" stroke="none" opacity="0.35"></circle><circle r="5.657894736842105" cx="0" cy="800" fill="hsl(214, 20%, 21%)" stroke="none" opacity="0.35"></circle><circle r="5.657894736842105" cx="200" cy="800" fill="hsl(214, 20%, 21%)" stroke="none" opacity="0.35"></circle><circle r="5.657894736842105" cx="400" cy="800" fill="hsl(214, 20%, 21%)" stroke="none" opacity="0.35"></circle><circle r="5.657894736842105" cx="600" cy="800" fill="hsl(214, 20%, 21%)" stroke="none" opacity="0.35"></circle><circle r="5.657894736842105" cx="800" cy="800" fill="hsl(214, 20%, 21%)" stroke="none" opacity="0.35"></circle></g></svg>