<svg xmlns="http://www.w3.org/2000/svg" version="1.1" xmlns:xlink="http://www.w3.org/1999/xlink" xmlns:svgjs="http://svgjs.dev/svgjs" viewBox="0 0 800 800" opacity="1" width="800" height="800"><g stroke-width="2.5" stroke="hsl(214, 20%, 21%)" fill="none"><rect width="11.31578947368421" height="11.31578947368421" x="-5.657894736842105" y="-5.657894736842105" fill="hsl(214, 20%, 21%)" stroke="none"></rect><rect width="11.31578947368421" height="11.31578947368421" x="194.3421052631579" y="-5.657894736842105" fill="hsl(214, 20%, 21%)" stroke="none"></rect><rect width="11.31578947368421" height="11.31578947368421" x="394.3421052631579" y="-5.657894736842105" fill="hsl(214, 20%, 21%)" stroke="none"></rect><rect width="11.31578947368421" height="11.31578947368421" x="594.3421052631579" y="-5.657894736842105" fill="hsl(214, 20%, 21%)" stroke="none"></rect><rect width="11.31578947368421" height="11.31578947368421" x="794.3421052631579" y="-5.657894736842105" fill="hsl(214, 20%, 21%)" stroke="none"></rect><rect width="11.31578947368421" height="11.31578947368421" x="-5.657894736842105" y="194.3421052631579" fill="hsl(214, 20%, 21%)" stroke="none"></rect><rect width="11.31578947368421" height="11.31578947368421" x="194.3421052631579" y="194.3421052631579" fill="hsl(214, 20%, 21%)" stroke="none"></rect><rect width="11.31578947368421" height="11.31578947368421" x="394.3421052631579" y="194.3421052631579"></rect><rect width="11.31578947368421" height="11.31578947368421" x="594.3421052631579" y="194.3421052631579" fill="hsl(214, 20%, 21%)" stroke="none"></rect><rect width="11.31578947368421" height="11.31578947368421" x="794.3421052631579" y="194.3421052631579" fill="hsl(214, 20%, 21%)" stroke="none"></rect><rect width="11.31578947368421" height="11.31578947368421" x="-5.657894736842105" y="394.3421052631579" fill="hsl(214, 20%, 21%)" stroke="none"></rect><rect width="11.31578947368421" height="11.31578947368421" x="194.3421052631579" y="394.3421052631579" fill="hsl(214, 20%, 21%)" stroke="none"></rect><rect width="11.31578947368421" height="11.31578947368421" x="394.3421052631579" y="394.3421052631579"></rect><rect width="11.31578947368421" height="11.31578947368421" x="594.3421052631579" y="394.3421052631579"></rect><rect width="11.31578947368421" height="11.31578947368421" x="794.3421052631579" y="394.3421052631579" fill="hsl(214, 20%, 21%)" stroke="none"></rect><rect width="11.31578947368421" height="11.31578947368421" x="-5.657894736842105" y="594.3421052631579" fill="hsl(214, 20%, 21%)" stroke="none"></rect><rect width="11.31578947368421" height="11.31578947368421" x="194.3421052631579" y="594.3421052631579" fill="hsl(214, 20%, 21%)" stroke="none"></rect><rect width="11.31578947368421" height="11.31578947368421" x="394.3421052631579" y="594.3421052631579"></rect><rect width="11.31578947368421" height="11.31578947368421" x="594.3421052631579" y="594.3421052631579" fill="hsl(214, 20%, 21%)" stroke="none"></rect><rect width="11.31578947368421" height="11.31578947368421" x="794.3421052631579" y="594.3421052631579" fill="hsl(214, 20%, 21%)" stroke="none"></rect><rect width="11.31578947368421" height="11.31578947368421" x="-5.657894736842105" y="794.3421052631579" fill="hsl(214, 20%, 21%)" stroke="none"></rect><rect width="11.31578947368421" height="11.31578947368421" x="194.3421052631579" y="794.3421052631579" fill="hsl(214, 20%, 21%)" stroke="none"></rect><rect width="11.31578947368421" height="11.31578947368421" x="394.3421052631579" y="794.3421052631579" fill="hsl(214, 20%, 21%)" stroke="none"></rect><rect width="11.31578947368421" height="11.31578947368421" x="594.3421052631579" y="794.3421052631579" fill="hsl(214, 20%, 21%)" stroke="none"></rect><rect width="11.31578947368421" height="11.31578947368421" x="794.3421052631579" y="794.3421052631579" fill="hsl(214, 20%, 21%)" stroke="none"></rect></g></svg>