<svg xmlns="http://www.w3.org/2000/svg" version="1.1" xmlns:xlink="http://www.w3.org/1999/xlink" xmlns:svgjs="http://svgjs.dev/svgjs" viewBox="0 0 1422 800"><defs><linearGradient x1="50%" y1="0%" x2="50%" y2="100%" id="oooscillate-grad"><stop stop-color="hsl(212, 100%, 51%)" stop-opacity="1" offset="0%"></stop><stop stop-color="hsl(269, 94%, 51%)" stop-opacity="1" offset="100%"></stop></linearGradient></defs><g stroke-width="2" stroke="url(#oooscillate-grad)" fill="none" stroke-linecap="round"><path d="M 0 777 Q 355.5 400 711 400 Q 1066.5 400 1422 777" stroke-dasharray="20 51" opacity="0.75"></path><path d="M 0 770 Q 355.5 400 711 400 Q 1066.5 400 1422 770" stroke-dasharray="38 4" opacity="0.70"></path><path d="M 0 763 Q 355.5 400 711 400 Q 1066.5 400 1422 763" stroke-dasharray="14 49" opacity="0.18"></path><path d="M 0 756 Q 355.5 400 711 400 Q 1066.5 400 1422 756" stroke-dasharray="3 34" opacity="0.70"></path><path d="M 0 749 Q 355.5 400 711 400 Q 1066.5 400 1422 749" stroke-dasharray="35 32" opacity="0.64"></path><path d="M 0 742 Q 355.5 400 711 400 Q 1066.5 400 1422 742" stroke-dasharray="43 21" opacity="0.23"></path><path d="M 0 735 Q 355.5 400 711 400 Q 1066.5 400 1422 735" stroke-dasharray="12 17" opacity="0.41"></path><path d="M 0 728 Q 355.5 400 711 400 Q 1066.5 400 1422 728" stroke-dasharray="8 48" opacity="0.65"></path><path d="M 0 721 Q 355.5 400 711 400 Q 1066.5 400 1422 721" stroke-dasharray="8 24" opacity="0.29"></path><path d="M 0 714 Q 355.5 400 711 400 Q 1066.5 400 1422 714" stroke-dasharray="30 20" opacity="0.91"></path><path d="M 0 707 Q 355.5 400 711 400 Q 1066.5 400 1422 707" stroke-dasharray="11 16" opacity="0.99"></path><path d="M 0 700 Q 355.5 400 711 400 Q 1066.5 400 1422 700" stroke-dasharray="45 38" opacity="0.98"></path><path d="M 0 693 Q 355.5 400 711 400 Q 1066.5 400 1422 693" stroke-dasharray="3 27" opacity="0.42"></path><path d="M 0 686 Q 355.5 400 711 400 Q 1066.5 400 1422 686" stroke-dasharray="33 34" opacity="0.97"></path><path d="M 0 679 Q 355.5 400 711 400 Q 1066.5 400 1422 679" stroke-dasharray="47 6" opacity="0.78"></path><path d="M 0 672 Q 355.5 400 711 400 Q 1066.5 400 1422 672" stroke-dasharray="49 10" opacity="0.56"></path><path d="M 0 665 Q 355.5 400 711 400 Q 1066.5 400 1422 665" stroke-dasharray="46 19" opacity="0.89"></path><path d="M 0 658 Q 355.5 400 711 400 Q 1066.5 400 1422 658" stroke-dasharray="40 19" opacity="0.78"></path><path d="M 0 651 Q 355.5 400 711 400 Q 1066.5 400 1422 651" stroke-dasharray="14 45" opacity="0.26"></path><path d="M 0 644 Q 355.5 400 711 400 Q 1066.5 400 1422 644" stroke-dasharray="28 32" opacity="0.57"></path><path d="M 0 637 Q 355.5 400 711 400 Q 1066.5 400 1422 637" stroke-dasharray="24 35" opacity="0.29"></path><path d="M 0 630 Q 355.5 400 711 400 Q 1066.5 400 1422 630" stroke-dasharray="7 22" opacity="0.18"></path><path d="M 0 623 Q 355.5 400 711 400 Q 1066.5 400 1422 623" stroke-dasharray="10 6" opacity="0.80"></path><path d="M 0 616 Q 355.5 400 711 400 Q 1066.5 400 1422 616" stroke-dasharray="9 32" opacity="0.11"></path><path d="M 0 609 Q 355.5 400 711 400 Q 1066.5 400 1422 609" stroke-dasharray="20 18" opacity="0.34"></path><path d="M 0 602 Q 355.5 400 711 400 Q 1066.5 400 1422 602" stroke-dasharray="19 33" opacity="0.41"></path><path d="M 0 595 Q 355.5 400 711 400 Q 1066.5 400 1422 595" stroke-dasharray="27 16" opacity="0.38"></path><path d="M 0 588 Q 355.5 400 711 400 Q 1066.5 400 1422 588" stroke-dasharray="8 42" opacity="0.50"></path><path d="M 0 581 Q 355.5 400 711 400 Q 1066.5 400 1422 581" stroke-dasharray="47 6" opacity="0.45"></path><path d="M 0 574 Q 355.5 400 711 400 Q 1066.5 400 1422 574" stroke-dasharray="1 36" opacity="0.75"></path><path d="M 0 567 Q 355.5 400 711 400 Q 1066.5 400 1422 567" stroke-dasharray="35 35" opacity="0.56"></path><path d="M 0 560 Q 355.5 400 711 400 Q 1066.5 400 1422 560" stroke-dasharray="47 8" opacity="0.78"></path><path d="M 0 553 Q 355.5 400 711 400 Q 1066.5 400 1422 553" stroke-dasharray="39 35" opacity="0.10"></path><path d="M 0 546 Q 355.5 400 711 400 Q 1066.5 400 1422 546" stroke-dasharray="52 31" opacity="0.94"></path><path d="M 0 539 Q 355.5 400 711 400 Q 1066.5 400 1422 539" stroke-dasharray="47 49" opacity="0.64"></path><path d="M 0 532 Q 355.5 400 711 400 Q 1066.5 400 1422 532" stroke-dasharray="27 45" opacity="0.44"></path><path d="M 0 525 Q 355.5 400 711 400 Q 1066.5 400 1422 525" stroke-dasharray="4 12" opacity="0.17"></path><path d="M 0 518 Q 355.5 400 711 400 Q 1066.5 400 1422 518" stroke-dasharray="1 1" opacity="0.85"></path><path d="M 0 511 Q 355.5 400 711 400 Q 1066.5 400 1422 511" stroke-dasharray="7 50" opacity="0.62"></path><path d="M 0 504 Q 355.5 400 711 400 Q 1066.5 400 1422 504" stroke-dasharray="51 34" opacity="0.80"></path><path d="M 0 497 Q 355.5 400 711 400 Q 1066.5 400 1422 497" stroke-dasharray="31 22" opacity="0.95"></path><path d="M 0 490 Q 355.5 400 711 400 Q 1066.5 400 1422 490" stroke-dasharray="32 30" opacity="0.19"></path><path d="M 0 483 Q 355.5 400 711 400 Q 1066.5 400 1422 483" stroke-dasharray="41 36" opacity="0.43"></path><path d="M 0 476 Q 355.5 400 711 400 Q 1066.5 400 1422 476" stroke-dasharray="4 51" opacity="0.90"></path><path d="M 0 469 Q 355.5 400 711 400 Q 1066.5 400 1422 469" stroke-dasharray="21 18" opacity="0.36"></path><path d="M 0 462 Q 355.5 400 711 400 Q 1066.5 400 1422 462" stroke-dasharray="27 11" opacity="0.17"></path><path d="M 0 455 Q 355.5 400 711 400 Q 1066.5 400 1422 455" stroke-dasharray="16 0" opacity="0.77"></path><path d="M 0 448 Q 355.5 400 711 400 Q 1066.5 400 1422 448" stroke-dasharray="41 9" opacity="0.84"></path><path d="M 0 441 Q 355.5 400 711 400 Q 1066.5 400 1422 441" stroke-dasharray="35 27" opacity="0.20"></path><path d="M 0 434 Q 355.5 400 711 400 Q 1066.5 400 1422 434" stroke-dasharray="15 6" opacity="0.38"></path><path d="M 0 427 Q 355.5 400 711 400 Q 1066.5 400 1422 427" stroke-dasharray="44 3" opacity="0.96"></path><path d="M 0 420 Q 355.5 400 711 400 Q 1066.5 400 1422 420" stroke-dasharray="25 47" opacity="0.59"></path><path d="M 0 413 Q 355.5 400 711 400 Q 1066.5 400 1422 413" stroke-dasharray="4 16" opacity="0.77"></path><path d="M 0 406 Q 355.5 400 711 400 Q 1066.5 400 1422 406" stroke-dasharray="4 22" opacity="0.23"></path><path d="M 0 399 Q 355.5 400 711 400 Q 1066.5 400 1422 399" stroke-dasharray="14 35" opacity="0.88"></path><path d="M 0 392 Q 355.5 400 711 400 Q 1066.5 400 1422 392" stroke-dasharray="36 47" opacity="0.94"></path><path d="M 0 385 Q 355.5 400 711 400 Q 1066.5 400 1422 385" stroke-dasharray="1 24" opacity="0.81"></path><path d="M 0 378 Q 355.5 400 711 400 Q 1066.5 400 1422 378" stroke-dasharray="28 35" opacity="0.81"></path><path d="M 0 371 Q 355.5 400 711 400 Q 1066.5 400 1422 371" stroke-dasharray="16 23" opacity="0.83"></path><path d="M 0 364 Q 355.5 400 711 400 Q 1066.5 400 1422 364" stroke-dasharray="44 0" opacity="0.65"></path><path d="M 0 357 Q 355.5 400 711 400 Q 1066.5 400 1422 357" stroke-dasharray="23 4" opacity="0.66"></path><path d="M 0 350 Q 355.5 400 711 400 Q 1066.5 400 1422 350" stroke-dasharray="43 19" opacity="0.82"></path><path d="M 0 343 Q 355.5 400 711 400 Q 1066.5 400 1422 343" stroke-dasharray="46 38" opacity="0.69"></path><path d="M 0 336 Q 355.5 400 711 400 Q 1066.5 400 1422 336" stroke-dasharray="12 41" opacity="0.88"></path><path d="M 0 329 Q 355.5 400 711 400 Q 1066.5 400 1422 329" stroke-dasharray="14 18" opacity="0.79"></path><path d="M 0 322 Q 355.5 400 711 400 Q 1066.5 400 1422 322" stroke-dasharray="45 45" opacity="0.77"></path><path d="M 0 315 Q 355.5 400 711 400 Q 1066.5 400 1422 315" stroke-dasharray="20 25" opacity="0.29"></path><path d="M 0 308 Q 355.5 400 711 400 Q 1066.5 400 1422 308" stroke-dasharray="31 6" opacity="0.85"></path><path d="M 0 301 Q 355.5 400 711 400 Q 1066.5 400 1422 301" stroke-dasharray="32 6" opacity="0.96"></path><path d="M 0 294 Q 355.5 400 711 400 Q 1066.5 400 1422 294" stroke-dasharray="48 50" opacity="0.88"></path><path d="M 0 287 Q 355.5 400 711 400 Q 1066.5 400 1422 287" stroke-dasharray="21 23" opacity="0.53"></path><path d="M 0 280 Q 355.5 400 711 400 Q 1066.5 400 1422 280" stroke-dasharray="44 49" opacity="0.68"></path><path d="M 0 273 Q 355.5 400 711 400 Q 1066.5 400 1422 273" stroke-dasharray="10 13" opacity="0.50"></path><path d="M 0 266 Q 355.5 400 711 400 Q 1066.5 400 1422 266" stroke-dasharray="6 5" opacity="0.94"></path><path d="M 0 259 Q 355.5 400 711 400 Q 1066.5 400 1422 259" stroke-dasharray="36 7" opacity="0.86"></path><path d="M 0 252 Q 355.5 400 711 400 Q 1066.5 400 1422 252" stroke-dasharray="25 35" opacity="0.79"></path><path d="M 0 245 Q 355.5 400 711 400 Q 1066.5 400 1422 245" stroke-dasharray="23 21" opacity="0.43"></path><path d="M 0 238 Q 355.5 400 711 400 Q 1066.5 400 1422 238" stroke-dasharray="39 31" opacity="0.57"></path><path d="M 0 231 Q 355.5 400 711 400 Q 1066.5 400 1422 231" stroke-dasharray="16 34" opacity="0.49"></path><path d="M 0 224 Q 355.5 400 711 400 Q 1066.5 400 1422 224" stroke-dasharray="10 39" opacity="0.39"></path><path d="M 0 217 Q 355.5 400 711 400 Q 1066.5 400 1422 217" stroke-dasharray="32 33" opacity="0.39"></path><path d="M 0 210 Q 355.5 400 711 400 Q 1066.5 400 1422 210" stroke-dasharray="41 42" opacity="0.74"></path><path d="M 0 203 Q 355.5 400 711 400 Q 1066.5 400 1422 203" stroke-dasharray="17 13" opacity="0.32"></path><path d="M 0 196 Q 355.5 400 711 400 Q 1066.5 400 1422 196" stroke-dasharray="13 39" opacity="0.68"></path><path d="M 0 189 Q 355.5 400 711 400 Q 1066.5 400 1422 189" stroke-dasharray="52 20" opacity="0.43"></path><path d="M 0 182 Q 355.5 400 711 400 Q 1066.5 400 1422 182" stroke-dasharray="21 22" opacity="0.82"></path><path d="M 0 175 Q 355.5 400 711 400 Q 1066.5 400 1422 175" stroke-dasharray="31 8" opacity="0.78"></path><path d="M 0 168 Q 355.5 400 711 400 Q 1066.5 400 1422 168" stroke-dasharray="28 39" opacity="0.07"></path><path d="M 0 161 Q 355.5 400 711 400 Q 1066.5 400 1422 161" stroke-dasharray="23 39" opacity="0.87"></path><path d="M 0 154 Q 355.5 400 711 400 Q 1066.5 400 1422 154" stroke-dasharray="20 21" opacity="0.53"></path><path d="M 0 147 Q 355.5 400 711 400 Q 1066.5 400 1422 147" stroke-dasharray="31 4" opacity="0.65"></path><path d="M 0 140 Q 355.5 400 711 400 Q 1066.5 400 1422 140" stroke-dasharray="8 27" opacity="0.26"></path><path d="M 0 133 Q 355.5 400 711 400 Q 1066.5 400 1422 133" stroke-dasharray="31 33" opacity="0.93"></path><path d="M 0 126 Q 355.5 400 711 400 Q 1066.5 400 1422 126" stroke-dasharray="12 28" opacity="0.10"></path><path d="M 0 119 Q 355.5 400 711 400 Q 1066.5 400 1422 119" stroke-dasharray="43 35" opacity="0.37"></path><path d="M 0 112 Q 355.5 400 711 400 Q 1066.5 400 1422 112" stroke-dasharray="8 10" opacity="0.48"></path><path d="M 0 105 Q 355.5 400 711 400 Q 1066.5 400 1422 105" stroke-dasharray="48 2" opacity="0.58"></path><path d="M 0 98 Q 355.5 400 711 400 Q 1066.5 400 1422 98" stroke-dasharray="38 35" opacity="0.39"></path><path d="M 0 91 Q 355.5 400 711 400 Q 1066.5 400 1422 91" stroke-dasharray="29 43" opacity="0.63"></path><path d="M 0 84 Q 355.5 400 711 400 Q 1066.5 400 1422 84" stroke-dasharray="18 26" opacity="0.97"></path><path d="M 0 77 Q 355.5 400 711 400 Q 1066.5 400 1422 77" stroke-dasharray="16 36" opacity="0.81"></path><path d="M 0 70 Q 355.5 400 711 400 Q 1066.5 400 1422 70" stroke-dasharray="31 43" opacity="0.18"></path><path d="M 0 63 Q 355.5 400 711 400 Q 1066.5 400 1422 63" stroke-dasharray="25 41" opacity="0.25"></path><path d="M 0 56 Q 355.5 400 711 400 Q 1066.5 400 1422 56" stroke-dasharray="50 46" opacity="0.40"></path><path d="M 0 49 Q 355.5 400 711 400 Q 1066.5 400 1422 49" stroke-dasharray="45 35" opacity="0.94"></path><path d="M 0 42 Q 355.5 400 711 400 Q 1066.5 400 1422 42" stroke-dasharray="29 31" opacity="0.83"></path><path d="M 0 35 Q 355.5 400 711 400 Q 1066.5 400 1422 35" stroke-dasharray="34 10" opacity="0.24"></path><path d="M 0 28 Q 355.5 400 711 400 Q 1066.5 400 1422 28" stroke-dasharray="1 31" opacity="0.71"></path><path d="M 0 21 Q 355.5 400 711 400 Q 1066.5 400 1422 21" stroke-dasharray="20 19" opacity="0.31"></path><path d="M 0 14 Q 355.5 400 711 400 Q 1066.5 400 1422 14" stroke-dasharray="8 12" opacity="0.66"></path></g></svg>