<svg xmlns="http://www.w3.org/2000/svg" version="1.1" xmlns:xlink="http://www.w3.org/1999/xlink" xmlns:svgjs="http://svgjs.dev/svgjs" viewBox="0 0 1422 800"><defs><linearGradient x1="50%" y1="0%" x2="50%" y2="100%" id="ssscribble-grad"><stop stop-color="hsl(212, 100%, 51%)" stop-opacity="1" offset="0%"></stop><stop stop-color="hsl(269, 94%, 51%)" stop-opacity="1" offset="100%"></stop></linearGradient></defs><g fill="none" stroke-width="1.5" stroke="url(#ssscribble-grad)" stroke-linecap="round"><path d="M1432.08 192.66C1451.33 211.08 1446.02 229.6 1417.59 248.36 1369.94 267.37 1308.14 287.08 1239.15 307.91 1169.6 329.65 1106.37 353.33 1054.98 379.53 1019.29 407.44 1001.47 438.73 1001.42 473.82 1018.8 511.08 1049.63 552.45 1089.65 597.79 1136.72 644.49 1184.13 694.12 1227.57 745.52 1265.91 795.38 1294.03 844.21 1310.36 889.8 1315.58 929.07 1308.19 961.24 1289.45 983.91 1260.71 995.92 1223.63 995.91 1180.67 983.05 1132.44 959.67 1082.13 925.37 1031.77 882.38 980.71 836.53 932.1 789.33 886.89 745.48 843.49 711.61 804.22 689.82 769.08 683.87 736.27 696.6 707.12 727.54 681.1 775.43 656.83 836.53 634.78 905.91 614.36 976.97 594.82 1042.25 576.09 1095.06 557.73 1129 539.62 1140.45 521.42 1127.06 503 1089.58 484.59 1033.44 466.39 965.26 448.64 893.39 431.12 825.76 414.51 769.61 399.32 730.33 385.02 711.51 372.95 713.62 363.81 734.82 356.42 773.23 352.86 822.48 353.76 876.57 356.98 932.02 365.13 981.12 378.29 1019.43 393.27 1045.6 412.52 1055.78 435.2 1049.91 457.18 1029.24 480.08 994.99 501.96 950.2 518.57 896.9 530.36 839.1 534.97 780.16 529.57 721.07 513.98 665.73 487.01 615.87 448.93 571.18 400.31 533.7 342.79 503.3 280.18 479.25 214.93 461.41 151.43 448.57 94.98 440.67 49.15 435.86 18.27 432.79 4.82 432.56 10.66 432.34 35.95 431.11 76.95 431.09 131.39 429 193.83 424.22 255.71 419.81 312.09 412.23 356.1 401.17 380.89 390.18 384.33 375.56 365.08 357.14 324.22 338.73 268.16 316.96 203.89 292.09 137.04 267.28 76.87 239.51 29.75 209.19 -1.1 179.25 -11.25 147.22 -0.4 113.82 29.61 81.65 76.21 49.16 134.58 17.48 200.31 -11.36 267.53 -37.67 331.14 -60.01 387.79 -77.41 433.51 -88.93 466.51 -93.27 485.93 -91.25 492.13 -81.18 486.8 -62.85 470.37 -39.34 446.71 -9.28 418.82 25.66 386.71 60.47 355.36 95.29 327 126.85 290.12 156.77 254.93 137.83 257.43 81.24 265.81 26.5 279.37 -37.59 296.95 -106.54 317.75 -174.13 341.05 -235.37 365.71 -284.18 392.1 -315.78 418.64 -326.69 444.48 -314.98 471 -282.81 496.1 -232.1 519.23 -168.11 542.51 -99.89 563.51 -33.58 581.92 22.56 600.34 60.06 615.74 75.33 628.32 67.53 641.06 37.24 651.31 -10.14 659.51 -68.31 668.41 -132.26 675.98 -192.85 683 -243.56 696.46 -290.54 735.39 -261.42 766.03 -192.74 792.49 -132.45 824.39 -67.41 862.26 -2.39 904.75 59.77 952.82 114.57 1005.72 159.71 1060.42 194.31 1117.06 217.3 1173.31 229.44 1225.33 230.9 1271.98 224.02 1310.16 211.09 1337.23 191.86 1351.53 170.44 1351.29 148.96 1337.46 125.93 1309.59 105.66 1269.36 89.2 1222.18 74.1 1169.97 63.85 1117.74 58.5 1055.55 56.03 1027.64 74.66 1075.08 92.88 1129.3 106.77 1194.89 122.4 1265.38 139.27 1333.29 156.38 1391.22 174.25 1432.08 192.66Q1432.08 192.66 1432.08 192.66" opacity="0.47"></path><path d="M1383.58 286.89C1400.88 320.37 1340.67 364.46 1228.98 418.85 1103.07 474.41 1002.03 541.63 950.77 618.67 957.86 694.12 1010.53 772.73 1084.65 844.82 1165.16 898.29 1222.96 927.48 1247.17 921.91 1239.92 886.1 1199.96 819.64 1138.86 737.09 1061.57 669.66 980.71 632.84 904.99 648.27 829 721.74 763.42 838.2 709.33 965.36 656.66 1061.43 613.57 1092.14 580.09 1041.08 546.6 929.76 524.32 800.63 513.85 700.61 504.79 660.71 509.46 686.89 527.42 760.48 545.12 859.31 570.84 943.68 596.52 989.92 606.02 992.54 597.91 947.85 561.28 870.66 493.18 771.89 395.68 670.55 280.31 579.52 171.33 498.32 88.63 435.49 56.99 388.35 83.72 351.92 165.7 323.35 278.69 296.85 377.45 273.32 430.88 246.02 413.58 212.53 326.45 179.05 208.34 140.98 104.09 101.36 43.6 64.72 51.03 32.38 119.35 10.79 228.46 -0.1 348.48 7.58 451.49 37.17 522.54 76.59 552.89 129.87 549.14 184.76 515.89 218.07 472.02 223.07 431.46 185.6 391.77 104.5 368.8 -9.88 363.46 -133.26 366.27 -231.39 382.89 -276.64 408.57 -249.68 437.18 -162.59 469.5 -40.25 502.99 71.06 536.47 122.14 569.53 98.24 604.06 15.1 641.52 -99.13 685.81 -196.54 741.02 -245.48 804.4 -236.37 882.5 -169.54 973.8 -67.24 1065.96 50.17 1157.9 156.32 1235.03 236.02 1282.67 285.48 1292.02 304.35 1255.83 302.49 1187.69 282 1097.69 258.53 1013.13 241.11 969.35 222.09 980.98 215.78 1054.39 223.36 1171.56 232.12 1296.45 253.41 1383.58 286.89Q1383.58 286.89 1383.58 286.89" opacity="0.30"></path><path d="M1335.08 469.39C1354.21 499.53 1309.25 540.12 1217.41 589.05 1104.25 636.76 999.13 689.92 925.17 743.49 894.33 789.55 906.21 827.32 948.79 848.83 1013.98 852.52 1078.88 832.45 1129.55 787.56 1165.68 731.83 1175.86 666.87 1162.97 608.49 1132.65 579.1 1088.17 585.97 1037.52 637.6 980.35 728.37 925.14 841.93 876.43 950.67 826.82 1024.88 785.99 1042.04 755.86 992.58 725.73 893.99 707.71 776.95 700.49 676.8 692.37 618.98 692.76 614.13 697.71 655.24 696.13 731.3 690.99 814.12 674.86 881.86 641.32 926.95 587.87 935.13 512.24 909.51 422.08 856.33 321.45 784.46 224.89 706.02 150.93 622.18 112.02 544.87 120.78 478.16 172.64 415.41 260.61 363.32 362.14 320.4 442.36 279.5 481.21 244.38 462.08 214.24 386.04 184.11 281.95 160.38 182.72 144.45 110.73 130.54 89.85 127.81 121.64 138.33 196.33 152.82 296.87 180.51 401.25 217.9 496.12 249.9 566.46 278.51 608.82 292.2 623.87 278.34 618.18 234.43 601.65 157.98 573.83 58.86 548.89 -50.97 532.61 -149.12 516.69 -212.33 512.83 -224.64 521.17 -178.46 530.68 -89.95 550.72 20.97 580.86 119.56 610.99 169.04 649.79 158.01 697.11 95.44 745.6 -1.66 804.28 -98.08 872.43 -166.77 940.92 -196.31 1015.5 -176.17 1089.76 -115.41 1152.73 -25.65 1201.69 75.03 1226.13 170.25 1223.27 254.64 1188.66 317.97 1125.16 360.73 1052.16 385.66 978.64 397.52 926.04 403.68 916.34 402.33 954.36 403.99 1037.99 413.11 1148.85 421.01 1259.04 439.26 1335.08 469.39Q1335.08 469.39 1335.08 469.39" opacity="0.29"></path><path d="M1286.6 597.73C1306.74 624.51 1275.35 653.71 1203.24 683.3 1107.04 710.95 1007.08 735.23 922.31 752.04 864.14 761.97 838.9 759.1 843.58 740.47 875.57 713.34 921.26 672.02 969.08 621.29 1018.6 576.33 1055.66 538.36 1077 519.18 1088.46 530.33 1084.48 573.27 1068.78 647.61 1046.26 742.68 1017.71 844.5 987.31 931.84 955.09 985.37 924.58 991.13 897.79 944.09 871.01 858.01 849.22 754.17 830.92 658.13 810.81 589.27 790.63 559.33 766.73 568.44 736.01 613.24 695.88 676.86 643.13 743.08 580.5 806.09 505 848.86 420.36 867.16 337.44 864.5 259.99 839.29 200.11 798.52 167.54 745.25 168.75 686.76 207.3 629.41 272.43 569.38 357.14 515.38 443.01 469.85 504.78 424.39 530.74 387.73 510.6 360.95 445.23 334.16 355.53 318.52 264.69 313.46 167.41 311.11 218.33 345.48 338.1 364.65 430.94 364.14 516.94 350.89 587.99 318.45 643.18 265.05 679.47 190.52 700.52 99.62 707.88 5.51 708.17 -82.12 707.26 -146.56 701.49 -175.32 700.6 -160.63 707.66 -102.12 714.03 -16.42 730.04 81.98 756.83 168.06 783.61 215.12 819.9 214.8 864.05 171.62 907.51 94.62 957.12 8.05 1009.31 -67.39 1056.64 -122.09 1100.47 -141.02 1134.39 -124.29 1154.62 -77.22 1156.79 -7.49 1136.7 72.57 1100.76 158.41 1046.52 238.19 981.57 306.6 924.01 366.52 879.39 413.49 861.58 449.98 881.41 479.6 937.96 504.04 1024.92 526.91 1126.1 547.83 1221.23 570.94 1286.6 597.73Q1286.6 597.73 1286.6 597.73" opacity="0.33"></path><path d="M1237.9 571.59C1258.47 595.03 1238.97 612.48 1185.76 623.33 1109.08 633.05 1021.69 634.24 937.56 625.82 865.48 614.94 813.93 593.94 785.1 564.22 779.26 535.84 791.39 504.54 814.6 476.36 848.77 461.83 882.9 461.55 911.65 481.62 939.85 524.67 958.15 589.48 965.99 671.27 970.71 759.07 966.29 842.8 954.23 907.72 940.95 942.61 922.18 939.28 898.74 895.47 875.3 821.61 848.3 731.74 817.39 643.45 785.24 570.42 747.03 523.15 701.68 505.26 653.24 517.46 596.33 551.88 532.01 598.72 467.13 655.06 399.36 706.64 334.47 746.74 260.58 785.11 241.75 768.3 311.92 728.03 378.87 693.93 452.92 658.58 520.56 625.44 564.71 591.15 579.47 561.44 558.9 538 503.57 514.56 428.19 498.51 348.33 488.59 246.97 473.89 217.03 444.09 287.93 411.62 358 376.53 434.3 328.53 508.58 266.62 579.83 195.81 640.85 116.43 690.33 35.69 731.21 -35.54 762.36 -90.98 786.66 -120.37 805.71 -119.66 822.44 -85.75 839.68 -21.77 855.54 57.46 874.6 142.58 898.04 216.44 921.48 260.27 948.18 268.36 976.53 242.53 1003.49 186.66 1029.39 116.27 1050.96 45.65 1071 -40.86 1042.92 -63.04 988.71 -3.75 945.15 55.13 896.64 120.08 850.97 184.58 820.98 250.42 808.99 310.02 822.06 361.52 863.32 410.56 929.59 452 1013.53 486.49 1102.44 519.84 1182.57 548.15 1237.9 571.59Q1237.9 571.59 1237.9 571.59" opacity="0.99"></path><path d="M1189.6 411.66C1209.42 431.75 1199.35 443.38 1162.99 447.11 1106.29 450.91 1036.37 447.13 962.46 437 890.28 428.35 827.35 415.73 777.77 402.17 742.43 394.83 721.97 391.97 713.88 397.8 717.79 416.39 728.32 448.48 741.22 495.47 759.09 554.82 774.28 625.02 784.25 700.39 794.96 772.31 798.7 834.55 794.63 877.9 790.43 896.88 778.49 886.88 758.4 847.09 738.31 785.13 711.03 709.64 677.34 632.04 643.52 561.15 603.23 505.09 557.71 468.36 512.93 452.98 464.65 456.96 415.82 475.75 371.95 508.57 332.58 546.38 302.34 583.37 284.11 621.73 280.75 652.47 295.17 673.63 323.83 690.49 368.74 697.39 426.2 695.6 485.38 690.29 543.87 678.85 592.81 663.2 621.43 646.46 627.42 627.57 607.6 607.48 562.11 587.39 500.91 567.06 433.84 545.91 365.8 523.67 309.45 498.57 270.89 469.06 250.04 436.04 251.34 396.05 272.12 348.23 309.03 296.1 358.21 236.52 413.77 171.83 474.73 108.52 534.7 46.89 590.18 -6.84 644.09 -46.55 691.38 -68.54 731.66 -67.89 769.45 -45.89 801.6 -1.26 828.88 61.87 855.26 131.71 878.4 203.13 898.49 265.09 918.58 304.87 934.67 318.95 946.18 307.72 956.79 272.12 961.19 221.31 958.21 164.12 952.75 103.48 938.55 51.29 915.6 12.86 891.08 -13.2 859.96 -21.47 825.32 -13.73 796.09 6.76 770.73 38.46 754.73 76.76 754.86 121.29 771.57 166.99 807.14 210.46 860.42 255.4 928.2 295.72 1003.99 329.81 1078.81 363.96 1144.08 391.56 1189.58 411.65Q1189.6 411.66 1189.6 411.66" opacity="0.34"></path><path d="M1141.07 242.47C1158.37 275.95 1096.89 291.79 989.82 299.13 867.14 316.9 762.38 346.28 691.94 403.21 652.52 488.56 637.1 603.81 628 725.34 628.02 817.1 615.56 849.63 582.08 798.55 548.6 687.23 497.26 557.59 439.22 456.4 390.29 404.02 353.46 401.98 349 428.94 375.56 479.99 444.79 522.19 542.93 540.94 625.47 557.2 673.37 548.38 656.07 514.9 568.94 481.42 457.27 426.45 366.03 352.16 309.02 275.38 310.14 180.93 355.07 86 430.04 15.15 515.27 -18.31 590.08 9.51 666.26 86.16 723.93 202.23 757.41 313.55 790.9 364.63 797.01 345.67 778.86 278.46 762.08 181.47 729.1 101.73 698.02 60.26 696.97 47.22 731.37 70.09 812.92 110.35 928.7 161.03 1053.94 208.99 1141.07 242.47Q1141.07 242.47 1141.07 242.47" opacity="0.17"></path><path d="M1092.6 196.28C1112.74 223.06 1079.87 253.94 1010.43 292.07 919.05 336.48 824.83 397.65 744.29 476.62 674.62 562.17 623.31 655.68 586.49 737.48 556.26 789.32 529.78 797.13 503 750.09 476.21 664.01 451.65 559.91 435.46 465.44 425.86 392.35 435.37 349.46 469.93 332.13 515.37 337.08 581.17 349.1 652.92 355.06 702.72 365.14 724.74 359.39 704.6 332.61 639.23 305.82 554.65 260.53 475.91 204.03 389.58 124.74 404.94 47.23 465.62 107.93 513.33 182.77 554.52 276.01 581.31 362.09 608.09 409.13 617.94 412.18 616.65 379.97 620.96 317.8 625.63 252.71 642.65 202.26 681.2 158.4 745.29 139.03 833.42 141.05 931.8 149.33 1027.23 169.49 1092.6 196.28Q1092.6 196.28 1092.6 196.28" opacity="0.60"></path><path d="M1044.1 309.07C1063.92 329.16 1052.33 362.92 1016.47 407.86 962.96 453.74 899.53 511.16 837.16 574.53 773.41 633.51 717.84 689.1 674.3 729.7 632.49 749.39 600.77 741.37 580.68 701.59 560.59 639.63 554.03 563.96 561.03 488.69 569.76 418.27 593.97 360.59 631.39 318.22 667.43 287.18 709.55 266.12 748.34 249.88 769.48 237.63 772.92 223.02 753.1 202.93 707.61 182.84 650.14 159.18 592.6 136.62 533.44 118.04 488.49 107.75 461.67 112.45 443.51 128.49 441.47 164.87 451.03 220.56 464.37 281.1 482.91 348.63 503 410.59 523.08 450.37 542.82 466.53 564.29 461.57 589.54 435.69 622.94 401.41 667.42 368.76 720.57 331.72 786.83 305.65 860.71 294.59 932.97 284.46 998.59 288.97 1044.08 309.06Q1044.1 309.07 1044.1 309.07" opacity="0.40"></path><path d="M995.6 492.84C1015.74 519.62 979.82 579.79 920.94 643.47 847.25 688.13 783.39 700.13 756.6 653.09 729.81 567 745.18 462.42 783.76 378.96 807.53 305.24 821.74 253.87 801.6 227.08 736.22 200.29 661.89 203.17 612.14 241.78 565.56 290.13 554.7 373 581.49 459.09 608.28 506.13 667.63 515.85 749.32 506.29 834.18 477.72 930.22 466.05 995.6 492.84Q995.6 492.84 995.6 492.84" opacity="0.65"></path></g></svg>