<svg xmlns="http://www.w3.org/2000/svg" version="1.1" xmlns:xlink="http://www.w3.org/1999/xlink" xmlns:svgjs="http://svgjs.dev/svgjs" viewBox="0 0 1422 800"><defs><linearGradient x1="50%" y1="0%" x2="50%" y2="100%" id="ssscribble-grad"><stop stop-color="hsl(212, 100%, 51%)" stop-opacity="1" offset="0%"></stop><stop stop-color="hsl(174, 75%, 43%)" stop-opacity="1" offset="100%"></stop></linearGradient></defs><g fill="none" stroke-width="1.5" stroke="url(#ssscribble-grad)" stroke-linecap="round"><path d="M1166.26 408.56C1213.76 430.79 1310.95 457.21 1421 487.53 1506.73 517.8 1536.2 551.83 1500.95 589.14 1413.28 625.97 1301.59 665.35 1200.39 706.23 1137.6 745.15 1128.93 783.68 1171.38 819.95 1251 851.35 1339.93 877.5 1412.01 896.12 1450.19 906.71 1442.14 907.37 1391.25 897.02 1307.87 878.75 1210.23 850.99 1117.05 815.84 1041.32 780.24 994.97 744.79 980.1 714.74 995.31 697.55 1032.03 695.08 1079.57 711.31 1132.5 747.73 1177.68 803.02 1208.92 873.74 1226.04 952.06 1224.4 1030.91 1206.18 1100.35 1173.77 1150.64 1130.55 1175.21 1081.19 1169.43 1025.75 1135.69 970.24 1077.96 917.46 1006.04 864.24 935.68 816.06 878.2 773.5 846.24 731.9 848.94 695.65 886.46 664.44 953.54 633.65 1038.06 607.17 1123.6 584.94 1192.28 562.71 1229.72 545.26 1227.16 532.75 1186.41 520.65 1116.51 514.24 1031.17 513.92 946.92 518.06 857.75 554.9 875.37 579.84 962.12 590.67 1029.66 596.33 1087.7 592.24 1126.91 573.96 1143.17 540.17 1132.3 488.79 1096.68 423.29 1040.56 345.02 970.96 260.27 895.98 180.93 821.1 113.69 754.3 69.34 699.96 55.08 659.83 73.68 635.58 123.16 625.68 190.1 629.44 262.98 642.67 323.22 661.47 350.97 685.97 337.47 710.01 279.46 730.92 187.56 750.82 80.51 764.61 -15.4 771.81 -74.13 775.53 -79.94 772.75 -29.69 764.34 58.95 752.98 160.03 737.43 239.11 718.87 265.79 698.81 229.77 677.14 139.65 654.77 25.2 632.01 -74.23 609.31 -121.73 587.08 -99.53 564.85 -15.95 543.61 97.39 523.08 201.24 502.15 260.61 481.15 258.66 459.29 197.86 435.93 102.62 410.3 6.2 381.33 -62.78 349.42 -80.46 312.72 -42.9 270.48 39.51 224.76 144.42 173.4 245.25 117 320.8 59.59 355.38 0.12 347.08 -58.64 300.98 -111.7 233.76 -158.02 163.73 -193.6 103.35 -215.51 68.9 -221.79 65.71 -210.79 93.19 -185.59 147.4 -146.54 218.93 -97.91 301.28 -49.18 382.57 -4.32 455.22 28.64 517.19 41.12 562.98 30.46 593.18 -5.61 609.14 -64.64 613.49 -140.79 610.45 -224.63 599.76 -303.49 587.7 -366.32 577.37 -402.21 565.3 -405.54 557.95 -374.83 556.35 -314.92 555.09 -239.25 559.92 -160.46 570.76 -94.94 581.88 -58.57 598.57 -58.25 620.8 -95.68 643.03 -164.35 670.27 -247.64 702.45 -327.76 734.91 -390.46 772.75 -421.44 815.93 -415.58 859.45 -375.05 907.98 -306.96 960.39 -224.06 1011.05 -139.59 1062.59 -67.38 1111.81 -17.34 1153.37 4.73 1186.58 -1.71 1207.13 -32.17 1213.42 -81.78 1203.07 -139.09 1175.36 -194.26 1136.97 -241.85 1088.77 -272.38 1038.22 -282.56 998.5 -272.54 974.81 -242.33 976.47 -196 1008.8 -136.82 1070.99 -70.85 1157.62 -3.44 1253.9 63.51 1345.87 124.35 1415.11 176.89 1446.56 221.5 1433.52 256.27 1377.8 282.19 1296.8 300.06 1210 311.48 1143.88 318.6 1122.62 320.86 1154.76 321.81 1236.3 323.22 1345.27 322.67 1451.12 324.47 1520.5 329.56 1531.03 334.18 1478.19 342.81 1378.74 355.84 1269.79 368.82 1188.46 386.33 1166.26 408.56Q1166.26 408.56 1166.26 408.56" opacity="0.64"></path><path d="M1120.26 560.22C1162.29 580.86 1248.98 603.45 1351.6 627.6 1440.33 651.44 1486.28 676.25 1477.12 701.2 1416.52 724.91 1321.5 747.52 1218.29 767.81 1107.64 792.03 1156.38 809.23 1270.68 797.64 1342.58 783.35 1387.53 762.53 1396.82 736.3 1369.62 709.98 1310.52 682.46 1231.13 656.98 1142.01 639.41 1057.98 630.29 989.17 633.18 940.54 651.02 916.22 684.1 914.02 732.48 931.95 792.98 962.55 862.69 998.76 936.05 1039.09 1005.03 1074.3 1063.92 1100.85 1105.53 1120.58 1124.97 1128.65 1119.45 1125.99 1088.9 1115.31 1039.42 1096.4 976.24 1071.85 909.11 1042.53 851.29 1010.91 810.77 979.14 796.02 945.57 812.07 913.89 856.94 885.32 924.72 856.39 1004.63 831.33 1083.26 810.69 1146.28 790.05 1182.3 774.31 1183.88 763.04 1151.88 751.4 1092.73 743.46 1016.49 738.1 936.13 730.94 863.84 724.33 810.39 716.2 782.29 703.3 782.57 685.55 808.44 660.46 853.58 627.34 912.08 584.39 972.32 530.77 1025.23 470.33 1065.88 402.21 1086.7 330.07 1085.85 262.04 1064.33 200.72 1023.89 153.25 969.44 125.92 904.85 121.89 836.69 143.47 770.31 185.23 708.08 243.5 654.9 308.24 612.43 363.25 580.73 399.37 560.25 405.08 549.36 374.3 547.71 309.35 552.2 219.03 560.29 121.35 572.95 34.46 585.63 -21.63 596.57 -33.82 608.41 1.38 616.64 76.06 620.64 210.21 623.42 280.6 605.9 161.78 586.85 55.08 572.69 -33.7 555.25 -75.73 534.61 -57.4 513.97 15.36 490.62 118.42 464.58 220.77 438.3 292.26 408.92 314.36 376.24 282.48 342.89 209.48 305.81 118.66 265 33.45 223.55 -20.31 178.66 -29.58 131.06 6.98 84.34 81.18 36.77 175.38 -9.77 271.7 -51.75 350.35 -89.15 399.08 -119.31 412.48 -140.25 392.46 -150.5 348.01 -148.33 287.23 -135.4 225.94 -110.57 175.47 -75.39 140.71 -36.07 129.72 6.32 142.36 46.54 176.37 76.62 227.52 94.08 289.16 94.12 358.54 73.48 427.56 32.66 491.73 -26.38 551.63 -97.7 602.18 -174.76 643.32 -248.4 677.19 -308.67 703.05 -347.99 723 -359.92 738 -343.48 750.16 -299.9 761.54 -235.58 770.83 -163.19 781.55 -93.01 794.94 -37.95 807.85 -10.01 824.4 -13.67 845.04 -49.68 865.68 -112.69 889.93 -189.22 917.22 -265.05 944.04 -328.76 972.94 -367.57 1002.58 -375.66 1030.12 -352.96 1056.2 -302.59 1078.66 -233.13 1096.15 -154.34 1106.95 -77.72 1108.85 -13.11 1103.49 32.57 1087.82 54.91 1061.82 53.89 1031.54 30.7 995.42 -8.18 957.86 -55.67 928.03 -107.53 907.61 -154.26 903.13 -190.39 920.02 -214.4 959.36 -221.71 1021.17 -212.51 1098.7 -188.34 1185.75 -150.88 1270.91 -103.78 1339.72 -48.76 1382.73 9.47 1390.83 67.61 1363.59 125.65 1304.95 179.38 1227.03 227.56 1151.24 271.61 1093.87 309.36 1072.43 341.34 1096.83 369 1164.04 392.2 1260.89 412.16 1363.36 429.32 1446.22 444.95 1486.06 460.17 1471.93 474.14 1406.51 488.95 1308.24 505.31 1209.27 521.37 1138.59 539.58 1120.26 560.22Q1120.26 560.22 1120.26 560.22" opacity="0.52"></path><path d="M1074.26 575.65C1111.14 594.71 1187.52 612.04 1281.47 627.48 1398.82 649.05 1373.14 677.07 1245.24 681.05 1151.37 680.86 1076.25 676.08 1033.37 666.64 1028.99 656.1 1060.36 641.54 1117.22 623.83 1188.79 607.35 1257.27 590.2 1309.51 574.42 1338.65 564.36 1337.79 559.59 1308.51 562.59 1254.93 575.89 1185.09 599.85 1108.49 635.43 1031.03 681.43 962.37 737.15 907.36 800.11 867.34 865.13 844.32 929.25 836.2 987.08 841.91 1032.9 856.81 1063.1 876.6 1073.86 901.79 1064.77 925.81 1035.69 946.1 989.42 965.62 933.68 978.98 873.47 985.9 817.2 989.58 763.48 967.74 804.79 946.67 896.58 931.16 971.18 913.71 1042.84 894.65 1100.29 875.6 1134.68 855.4 1139.8 833.79 1115.84 811.69 1067.27 787.24 1001.1 759.64 927.19 730.38 855.16 696.62 794.47 657.6 751.96 616.12 731.93 568.92 734.98 516.37 758.46 463.06 799.52 406.84 850.19 350.36 903.19 299.29 954.32 254.02 995.22 218.94 1021.78 197.69 1033.11 192.35 1026.69 205.11 1003.99 232.86 967.02 275.36 918.94 327.84 863.87 379.47 803.85 425.52 743.83 456.61 686.91 463.39 633.51 443.03 587 394.05 548.06 321.98 515.95 235.03 491.34 146.47 473.12 49.16 456.89 76.4 445.64 190.88 443.51 303.47 442.33 307.1 428.24 183.17 413.07 85.45 401.8 7.14 386.73 -29.73 367.68 -14.96 348.63 47.4 326.04 139.37 300.19 237.18 274.41 315.93 245.52 357.57 213.97 353.49 182.86 307.71 149.67 234.16 115.22 149.22 82.29 75.63 49.44 29.68 18.05 19.43 -9.8 48.2 -34.08 109.02 -53.1 191.5 -66.18 280.28 -71.94 361.1 -69.2 424.22 -59.63 461.19 -41.48 470.74 -15.34 453.98 14.3 417.9 48.16 371.13 83.21 318.34 113.31 270.79 137.61 234.47 152.08 210.29 152.29 203.25 137.5 212.46 106.34 235.99 59.95 271.72 0.58 315.59 -67.53 366.8 -137.52 420.13 -203.72 472.54 -258.76 525.84 -296.21 575.06 -311.67 619.28 -302.4 661.89 -270.65 699.3 -219.07 731.87 -154.39 763.07 -87.84 790.44 -27.27 814.57 17.53 838.27 37.73 859.56 30.69 878.61 -3.68 897.67 -61.12 914.04 -130.84 927.46 -201.68 945.04 -286.91 956.69 -306.19 947.6 -237.18 937.95 -170.16 922.57 -97.54 902.3 -27.83 882.91 32.4 861.77 77.02 841.85 103.1 829.26 109.34 823.9 97.61 829.72 71.63 849.87 33.64 885.26 -9.25 936.7 -51.78 1000.28 -92.24 1073.99 -124.18 1151.75 -145.21 1223.51 -155.82 1283.37 -153.61 1322.64 -139.65 1335.6 -115.39 1319.85 -82.26 1276.58 -42.83 1215.61 2.3 1145.29 49.82 1079.8 97.59 1035.97 146.59 1022.71 193.35 1046.92 236.91 1106.82 279.37 1192.8 317.98 1288.49 352.74 1372.81 386.03 1427.7 415.94 1439.15 442.86 1404.88 468.88 1331.75 492.66 1237.72 514.6 1149.51 536.27 1089.05 556.59 1074.26 575.64Q1074.26 575.65 1074.26 575.65" opacity="0.30"></path><path d="M1028.26 441.71C1060.23 459.18 1126.53 473.01 1210.88 483.3 1296 493.55 1361.21 500.2 1393.16 503.34 1342.65 509.67 1183.73 503.26 1031.52 488.57 976.39 481.53 1037.16 478.88 1153.31 492.9 1257.33 533.87 1281.68 605.06 1222.39 706.12 1103.06 818.71 970.21 927.23 860.98 1001.85 784.96 1020.63 750.19 975.35 741.2 878.79 759.1 743.76 764.9 778.21 755.34 868.92 747.44 937.63 734.85 1002.3 717.39 1054.28 699.92 1086.84 677.99 1094.88 651.87 1078.19 625.76 1039.77 595.54 984.23 561.66 918.75 495.3 787.29 419.7 700.17 347.29 683.96 295.74 737.86 272.98 827.39 295.16 911.7 350.55 967.78 433.26 970.64 506.8 924.92 520.3 841.9 454.53 741.37 314.14 642.91 161.62 550.13 69.53 476.37 99.05 420.99 225.65 378.05 364.69 345.62 401.72 316.85 363.03 303.84 292.68 290.33 204.11 275.78 116.3 261.47 48.23 245.67 16.26 228.21 27.85 210.74 80.38 192.02 160.79 172.31 251.45 152.84 332.71 132.83 388.43 112.9 389.59 75.79 269.23 44.67 130.79 27.07 68.27 21.91 129.41 38.13 270.4 77.08 468.78 146.89 433.48 187.14 329.74 72.56 290.26 -48.11 294.47 -168.97 330.87 -248.49 390.19 -257.9 458.09 -190.67 520.82 -72.7 553.4 -13.96 582.89 36.44 608.62 71.41 634.48 84.66 656.3 74.87 673.77 42.31 691.24 -9.65 703.93 -72.55 712.09 -137.8 722.4 -222.5 725.75 -224.25 724.78 -53.68 748.93 68.48 802.25 145.09 895.56 162.69 1013.44 124.45 1142.99 57.34 1243.9 -9.45 1276.35 -64.73 1225.39 -85.77 1109.57 -72.9 1004.95 -33.08 975.14 27.08 1063.26 94.65 1227.31 169.89 1367.55 239.84 1379.87 299.39 1330.89 329.18 1254.77 356.06 1167.56 379.83 1090.62 403.56 1039.85 424.25 1028.26 441.71Q1028.26 441.71 1028.26 441.71" opacity="0.10"></path><path d="M982.26 272.31C1067.96 304.07 1221.76 325.94 1332.66 340.21 1331.9 356.97 1218.29 371.37 1064.93 389.67 950.47 419.04 927.27 462.32 986.05 525.19 1092.13 603.57 1182.17 698.5 1219.18 799.64 1196.74 887.02 1121.3 948.51 1021.52 965.54 910.68 935.74 814.99 862.24 741.97 766.46 684.31 689.04 644.65 655.27 614.13 687.19 589.09 780.68 562.82 904.03 531.06 1008.29 499.3 1049.98 463.57 1010.05 428.72 909.46 399.35 786.71 381.23 685.37 383.87 634.56 401.84 644.27 445.24 700.39 507.13 775.83 557.97 852.69 587.82 901.2 568.63 912.13 490.01 888.47 362.31 833.63 223.17 761.72 131.32 677.54 126.05 595.46 217.23 522.73 347.31 453.29 442.85 395.7 431.35 348.79 308.2 304.23 147.96 266.56 62.26 234.81 114.15 203.05 265.05 178.7 407.85 163.38 454.34 150.4 385.67 150.22 259.53 164.62 148.75 182.32 123.43 212.1 189.95 247.34 318.53 270.3 453.94 279.56 552 261.59 596.03 209.04 586.58 122.88 547.49 12.95 488.98 -95.54 441.21 -180.14 415.08 -213.13 401.06 -185.6 408.84 -102.33 430.83 8.15 458.24 96.49 490.11 129.98 521.87 88.29 553.62 -15.96 583.76 -132.87 616.24 -214.11 654.14 -233.77 704.12 -181.93 773.17 -81.23 854.33 37.81 954.4 139.8 1061.85 202.66 1149.89 218.69 1204.94 194.86 1202.55 149.1 1146.12 89.58 1048.37 40.24 952.85 10.81 919.38 -3.11 973.16 5.9 1107.21 31.55 1256.63 68.29 1343.39 111.66 1309.18 154.79 1178.66 200.4 1034.18 240.55 982.26 272.3Q982.26 272.31 982.26 272.31" opacity="0.73"></path><path d="M936.17 211.31C1007.68 239.9 1142.89 269.57 1260.36 301.75 1300.95 336.33 1240.89 377.72 1116.08 428.93 980.53 486.4 890.94 556.18 870.58 636.39 916.86 716.11 997.63 794.76 1075.82 860.15 1134.94 900.36 1151.04 908.21 1127.78 877.47 1073.3 818.93 1000.85 739.83 926.09 661.86 846.8 614.99 778.25 612.55 723.57 663.61 670.55 758.21 629.83 870 601.25 962.14 572.67 1003.24 557.58 977.56 556.7 897.83 557.48 789.74 574.03 685.26 603.8 611.03 629.03 581.14 654.41 595.7 664.83 641.35 644.05 708.06 586.92 771.25 490.34 816.6 374.68 843.3 260.03 842.06 183.99 817.77 174.59 775.72 238.55 722.1 353.15 665.45 457.01 603.85 500.8 546.94 449.18 498.38 320.68 449.62 179.68 410.27 108.17 381.69 149.56 353.11 278.43 336.65 418.17 331.51 497.62 326.17 482.47 331.09 394.24 343.16 276.58 350.28 193.55 356.83 177.82 354.83 230.96 335.07 333.64 295.28 449.68 231.12 557.4 148.31 631.47 51.24 669.52 -45.22 675.58 -120.63 661.63 -160.83 642.75 -151.88 616.07 -98.6 599.48 -10.39 597.45 86.67 596.13 155.36 609.69 175.25 638.27 134.15 666.85 42.01 709.1 -63.98 764.32 -147.55 820.25 -187.58 888.83 -168.87 965.05 -101.05 1033.45 -2.13 1094.47 102.59 1132.46 190.88 1138.46 251.39 1105.42 277.42 1035.16 274.67 956.59 246.74 887.79 209.13 864.41 173.45 909.9 137.29 1018.56 114.58 1157.17 106.64 1266.35 104.96 1297.76 115.56 1229.35 134.88 1100.64 156.6 977.56 182.73 936.17 211.31Q936.17 211.31 936.17 211.31" opacity="0.69"></path><path d="M890.26 310.9C949.51 336.3 1064.88 370.23 1179.53 412.18 1248.09 454.77 1238.43 506.13 1160.17 564.93 1042.02 622.92 926.12 684.79 845.27 744.83 813.71 794.38 830.82 831.12 878.39 846.9 945.45 840.44 1005.1 808 1044.55 752.04 1066.94 688.39 1064.14 623.38 1043.1 573.99 1009.5 558.71 969.19 582.28 929.86 645.58 887.85 736.91 852.61 836.02 827.2 916.28 801.79 955.96 787.43 942.5 781.53 883.05 772.95 793.7 767.04 695.95 756.61 611.21 733.62 552.89 694.59 528.73 633.04 535.71 554.44 570.49 458.31 618.29 357.95 666.57 277.09 714.09 229.86 746.86 234.96 762.43 289.37 766.18 382.47 754.5 482.01 732.17 541.65 702.75 536.85 669.17 458.48 635.89 334.03 600.93 213.51 569.71 154.26 544.3 185.16 518.9 290.99 500.51 419.9 487.56 519.18 472.93 551.44 460.29 514.49 445.68 425.87 423.99 328.56 393.83 258.47 350.92 230.91 296.2 256.8 226.96 322.51 146.14 415.17 64.56 512.13 -13.34 597.52 -74.58 670.6 -108.02 722.19 -106.64 756.35 -66.95 777.96 -0.84 792.09 82.44 805.83 161.98 816.44 211.64 833.06 219.97 858.46 180.3 883.87 100.05 916.86 6.09 954.16 -75.44 988.34 -128.94 1020.43 -138.06 1042.84 -104.17 1052.71 -36.16 1042.95 51.62 1009.03 141.73 962.79 224.14 902.31 286.71 842.95 326.47 810.53 343.99 814.76 343.72 868.78 333.32 965.32 312.44 1085.42 292.41 1192.66 278.45 1248.23 263.67 1230.43 258.52 1140.95 263.85 1021.84 269.81 921.16 285.49 890.26 310.9Q890.26 310.9 890.26 310.9" opacity="0.99"></path><path d="M844.26 486.09C891.76 508.32 986.47 537.87 1091.09 573.2 1174.4 607.66 1205.23 645.98 1178.33 684.95 1103.74 719.32 1003.24 749.26 903.34 769.83 820.02 779.41 769.06 774 751.01 751 763.28 716.74 794.19 668.8 830.93 613.32 873.83 564.6 907.47 526.17 927.89 508.67 943.65 521.04 946.25 563.13 938.19 631.7 927.82 715.97 910.7 801.6 888.47 870.28 866.24 907.72 839.95 904.29 808.4 863.58 774.54 795.07 731.5 711.7 677.22 628.84 618.27 556.76 548.02 505.32 470.86 477.41 399.86 473.39 337.04 487.95 295.64 513.57 284.54 549.62 309.16 584.59 369.32 613.09 486.36 647.62 573.81 658.39 460.17 640.87 346.98 625.59 247.76 606.3 200.26 584.07 222.46 561.84 305.92 537.73 417.62 511.08 522.05 483.02 587.07 449.9 599.52 410.08 560.2 366.36 489.04 313.88 411.24 253.03 340.72 190.27 300.08 123.38 293.82 58.2 318.17 3.44 368.13 -37.46 431.26 -56.6 504.6 -51.84 575.12 -20.33 636.75 35.44 695.77 102 743.76 172.71 781.52 232.65 817.37 264.79 846.04 263.73 868.27 226.3 890.5 157.63 905.23 76.51 911.31 0.8 915.47 -59.18 907.92 -88.63 887.42 -84.71 864.32 -50.92 830.41 7.43 791.32 79.29 762.46 157.92 744.42 232.22 749.2 295.62 784.59 347.75 851.58 385.09 945.26 409.76 1046.2 423.45 1137.3 430.13 1192.91 434.27 1196.76 433.83 1144.39 435.95 1048.54 443.41 945.42 450.01 866.46 463.86 844.26 486.09Q844.26 486.09 844.26 486.09" opacity="0.49"></path><path d="M798.26 588.08C835.14 607.13 909.46 626.67 998.43 645.56 1111.12 670.85 1103.43 693.69 997.88 681.15 911.44 664.1 831.34 636.81 766.68 600.63 718.64 564.08 690.69 525.15 678.72 489.66 680.82 467.1 689.93 458.6 699.8 469.23 714.13 501.54 723.08 553.6 723.76 620.93 724.89 695.1 716.42 766.84 697.37 824.29 678.31 858.68 649.57 862.93 612.51 838.6 575.89 790.98 532.28 726.77 484.94 655.8 442.04 584.66 401.55 521.85 370.08 472.26 352.69 437.2 353.29 417.65 376.36 411.02 416.04 416.77 473.55 429.26 540.15 443.96 597.24 463.36 637.4 479.69 646.52 490.43 616.4 501.54 549.82 505.52 457.65 501.79 361.32 497.79 283.14 486.39 246.26 467.33 261.03 448.28 323.42 422.47 413.87 390.54 510.84 358.34 591.1 319.69 639.66 275.57 650.4 231.8 626.67 184.1 580.03 135.33 517.33 91.26 456.98 51.42 409.6 20.69 374.86 2.36 361.45 -0.68 366.84 14.53 386.55 44.28 417.78 90.01 454.1 147.18 496.03 204.18 536.36 257.55 571.26 297.82 607.03 314.79 635.27 306.68 654.33 272.29 673.39 214.84 682.36 146.96 682.52 80.14 680.73 -0.43 665.75 -23.26 675.47 31.92 699.44 87.25 740.2 148.78 799.9 210.3 872.26 271.45 955.19 326.1 1037.73 372.51 1104.22 413.52 1145.05 446.7 1148.29 473.51 1113.71 496.51 1044.31 516.15 954.69 534.3 871.59 551.34 813.05 569.01 798.26 588.07Q798.26 588.08 798.26 588.08" opacity="0.62"></path><path d="M752.26 530.15C837.96 561.9 984.72 572.48 1085.95 559.65 1096.49 542.71 1010.54 501.22 888.68 447.81 761.92 415.65 671.67 410.35 617.96 455.23 583.17 550.21 557.38 674.03 525.63 778.29 493.87 819.98 459.15 778.57 438.91 682.56 437.58 563.97 478.28 459.8 563.41 389.82 643.65 351.82 695.91 338.93 662.1 332.51 537.59 335.28 377.96 325.09 292.26 293.33 344.15 261.57 494.31 211.26 635.44 153.46 700.7 104.85 674.99 68.17 606.37 64.55 518.89 92.91 466.45 163.39 455.82 258.71 462.35 331.45 489.25 359.98 521 318.29 552.76 214.03 586.37 103.07 634.86 31.38 700.52 9.78 802.51 48.75 931.61 122.54 1041.87 217.57 1101.28 308.62 1059.31 380.59 941.47 448.45 804.17 498.38 752.26 530.14Q752.26 530.15 752.26 530.15" opacity="0.31"></path><path d="M706.26 361.54C765.52 386.95 875.15 391.46 977.25 379.69 1044.3 371.38 1046.26 355.69 999.21 345.74 918.94 357.74 832.32 394.91 761.31 462.77 691.72 552.7 642.99 652.02 617.58 732.28 592.17 771.96 592.5 756.78 618.07 699.58 645.05 615.51 692.02 524.44 738.99 444.98 752.74 375.66 723.84 324.99 638.17 289.26 517.44 260.38 397.52 235.42 338.26 210.01 369.16 184.61 474.53 161.16 598.22 146.02 701.34 137.71 753.18 148.73 758.89 184.76 727.19 230.92 687.27 295.05 661.77 360.5 634.79 399.07 632.45 403.96 657.86 364.28 683.26 284.02 734.01 194.99 805.02 123.69 874.54 74.45 954.12 64.23 1019.11 85.52 1046.7 128.77 1021.8 184.1 937.3 236.45 832.23 292.24 737.16 336.14 706.26 361.54Q706.26 361.54 706.26 361.54" opacity="0.74"></path><path d="M660.26 225.64C697.12 244.69 767.31 257.34 845.11 266.87 921.46 280.35 970.86 297.92 989.18 325.13 985.99 363.94 962.06 418.02 930.92 485.02 893.55 556.94 861.46 628.83 842.41 686.28 823.36 720.67 819.14 723.18 823.49 698.74 821.61 654.19 815.81 596.66 794.02 537.76 750.73 476.16 681.12 421.83 590.8 379.2 499.04 338.14 421.12 307.28 384.26 288.22 399.04 269.17 461.48 263.73 547.21 271.77 640.51 281.38 720.04 305.97 775.76 342.6 812.13 376.52 830.14 413.85 840.13 444.43 843.25 454.9 851.23 444.67 870.29 410.28 889.34 352.83 917.66 288.66 947.56 230.71 970.59 177.68 982.32 143.81 970.92 129.97 940.18 127.74 880.85 139.89 801.52 159.44 729.75 182.93 675.04 206.58 660.26 225.64Q660.26 225.64 660.26 225.64" opacity="0.31"></path><path d="M614.26 237.97C673.54 263.38 771.71 311.22 841.52 380.73 897.57 460.28 905.75 560.03 880.35 640.29 854.94 679.97 800.76 661.25 711.41 612.78 608.3 546.73 489.54 486.87 430.26 461.47 461.15 436.06 565.64 449.91 668.84 482.67 767.23 497.84 830.71 495.97 856.12 456.29 881.53 376.03 864.04 296.87 798.95 250.62 729.05 214.41 645.15 212.56 614.26 237.97Q614.26 237.97 614.26 237.97" opacity="0.55"></path></g></svg>