<svg xmlns="http://www.w3.org/2000/svg" version="1.1" xmlns:xlink="http://www.w3.org/1999/xlink" xmlns:svgjs="http://svgjs.dev/svgjs" viewBox="0 0 1422 800"><defs><linearGradient x1="50%" y1="0%" x2="50%" y2="100%" id="ssscribble-grad"><stop stop-color="hsl(269, 94%, 51%)" stop-opacity="1" offset="0%"></stop><stop stop-color="hsl(174, 75%, 43%)" stop-opacity="1" offset="100%"></stop></linearGradient></defs><g fill="none" stroke-width="1.5" stroke="url(#ssscribble-grad)" stroke-linecap="round"><path d="M1258.18 602.75C1317.41 621.17 1368.95 638.4 1408.69 654.24 1439.82 676.54 1396.51 707.44 1330.55 712.91 1275.26 713.29 1216.13 708.72 1157.07 698.86 1100.91 687.13 1051.04 670.39 1009.62 649.28 977.97 628.33 956.92 605.26 946.19 582.1 950.05 556.63 1003 552.48 1040.95 586.29 1068.31 625.58 1093.51 677.05 1115.23 739.01 1135.03 806.64 1149.77 877.18 1159.17 945.19 1165.37 1026.5 1147.63 1072.38 1126.63 1024.99 1109.16 970.98 1089.47 906.17 1068.39 838.87 1045.95 780.4 1023.02 737.15 1000.24 716.58 976.88 723.82 954.26 758.3 932.82 816.7 911.24 891.5 891.13 972.46 872.71 1047.53 854.3 1105.31 838.02 1135.92 823.73 1135.73 809.3 1106.05 796.57 1050.93 785.2 978.85 773.25 899.19 762.07 822.58 751.09 758.25 738.76 712.82 725.75 690.6 711.31 692.03 694.48 716.23 675.18 757.49 652.65 809.17 626.81 867.01 596.92 921.66 562.6 967.2 524.81 1001.44 482.66 1019.07 436.52 1019.37 388.44 1003.45 337.96 972.23 286.47 929.02 236.7 875.87 189.07 817.3 145.73 757.08 109.09 695.92 80.33 638.4 61.42 586.37 52.97 538.98 56.18 498.79 71.4 465.59 96.39 438.13 131.26 416.64 173.92 399.85 219.48 387.33 266.62 377.57 311.52 369.18 362.69 359.93 384.68 337.89 347.2 321.56 303.81 309.92 250.41 295.02 191.18 276.6 130.8 258.19 75.93 236.7 31.04 212.47 -1.82 188.44 -18.83 162.09 -19.15 134.09 -3.81 106.99 26.55 79.23 69.19 51.89 121.07 26.87 178.59 3.93 237.84 -15.46 295.92 -30.59 349.21 -40.22 395.22 -43.01 432.44 -40.04 459.54 -29.21 476.4 -10.2 482.77 13.43 480.09 43.54 470.01 78.35 452.49 112.22 430.88 145.51 407.25 174.53 380.93 193.6 355.8 201.85 333.3 196.02 311.94 173.99 295.04 135.86 283.08 82.45 274.11 17.74 270.39 -54.75 271.6 -129.01 275.95 -197.12 284.58 -253.39 296.75 -291.1 311.29 -306.03 328.39 -295.81 347.25 -260.78 367.51 -206.85 388.65 -139.04 410.01 -66.48 431.99 -1.51 453.59 48.19 474.35 74.24 495.27 70.8 515.06 38.34 533.47 -19.42 551.89 -94.48 568.5 -173.58 583.45 -244.74 598.55 -299.51 612.3 -328.58 625.05 -328.73 638.42 -301.05 651.4 -249.03 664.55 -180.17 679.09 -102.47 694.7 -25.67 712.08 41.83 731.82 94.11 754.32 126.36 780.2 137.44 809.23 127.33 842.3 99.96 879.65 60.43 920 11.6 964.3 -38.43 1012.01 -84.32 1060.86 -124.53 1111.28 -153.02 1161.74 -168.17 1209.51 -170.8 1254.1 -159.62 1293.36 -136.49 1325.19 -102.85 1348.37 -61.2 1361.18 -14.46 1363.49 37.08 1354.24 89.49 1333.45 140.69 1303.86 192.04 1265.58 239.89 1221 283.54 1175.24 325.31 1129.72 362.58 1088.22 395.62 1055.98 426.78 1034.4 454.46 1026.16 479.27 1033.59 503.01 1056.02 524.8 1092.54 545.14 1141.06 565.18 1197.8 584.34 1258.18 602.75Q1258.18 602.75 1258.18 602.75" opacity="0.41"></path><path d="M1209.68 464.24C1346.23 506.85 1317.14 516.8 1174.33 489.62 1068.19 474.79 978.66 462.16 917.23 464.71 888.2 495.34 888.48 558.05 908.59 655.62 946.15 771.88 985.05 892.56 1016.6 986.96 1045.52 1027.04 1059.79 999.07 1059.57 907.29 1053.31 793.21 1035.79 697.03 1010.47 667.66 983.03 728.44 951.64 857.6 918.16 999.03 884.68 1084.99 850.68 1071.73 814.98 971.48 777.16 829.36 733.77 704.52 682.01 640.25 624.2 652.25 554.79 723.11 474.26 816.01 391.12 904.84 304.15 952.73 222.7 950.88 158.7 904.52 118.73 824.25 112.89 730.17 139.46 628.06 198.96 536.27 280.55 460.63 358.72 393.66 419.88 341.4 443.62 299.38 416.26 261.1 342.98 226.43 239.68 192.95 132.61 159.46 56.13 128.75 28.6 103.89 52.04 82.76 122.43 74.11 220.55 83.05 327.74 100.67 423.33 137.31 493.88 187.81 533.82 230.29 543.74 262.51 531.69 264.99 499.99 222.97 463.91 135.39 432.66 11.7 391.78 -163.7 459.62 111.76 508.07 29.07 541.55 -112.35 577 -234.73 615.41 -282.61 655.86 -240.33 702.91 -125.11 758.87 13.51 820.16 129.84 892.68 187.85 974.99 182.63 1057.85 123.1 1142 42.11 1217.59 -30.25 1273.52 -83.94 1303.3 -98.58 1298.22 -77.61 1262.54 -28.56 1196.98 39.2 1114.32 112.05 1040.75 191.63 989.41 263.8 978.9 323.92 1019.34 383.64 1102.61 430.76 1209.68 464.24Q1209.68 464.24 1209.68 464.24" opacity="0.11"></path><path d="M1161.18 263.17C1255.18 293.3 1320.72 312.84 1345.4 324.18 1328.73 338.03 1272.46 348.98 1190.11 363.47 1094.72 389.31 1002.01 429.19 924 489.48 866.01 566.84 831.78 663.22 818.26 769.4 832.66 901.66 895.53 915.67 915.43 779.99 924.56 685.3 923.1 624.7 911.29 627.68 898.53 701.54 876.91 823.84 846.77 950.53 816.64 1031.92 779.42 1033.52 735.35 959.94 690.32 839.45 636.97 713.83 575.62 621.37 513.2 583.29 444.16 602.12 372.37 660.36 306.41 742.89 246.55 817.75 200.95 866.85 174.98 888.42 173.48 874.35 200.1 833.32 246.73 771.4 312.42 699.72 385.71 628.78 445.98 554.61 485.1 489.33 490.14 435.67 453.82 382.82 382.18 341.01 288.18 310.87 154.21 272.21 108.7 261.77 207.15 288.95 299.87 307.67 394.36 329.73 477.6 345.21 543.56 339.8 586.74 310.62 608.82 249.56 610.77 160.98 600.38 50.39 585.05 -63.51 562.43 -153.13 544.08 -198.99 533.82 -183.02 523.79 -112.66 524 -4.19 534.68 104.66 546.12 166.63 566.97 158.95 597.11 77.57 627.24 -49.1 665.23 -165.3 710.62 -227.55 756.77 -218.92 811.38 -141.19 873.64 -24.41 936.11 99.05 1004.09 194.69 1073.15 245 1134.93 245.8 1188.58 208.22 1226.13 152.1 1243.55 85.42 1236.1 32.3 1201.51 1.38 1149.65 -12.46 1082.18 -2.72 1011.55 23.66 958.12 61.39 929.41 105.26 936.6 148.24 984.2 193.73 1064.12 233.04 1161.18 263.17Q1161.18 263.17 1161.18 263.17" opacity="0.73"></path><path d="M1112.72 195.32C1197.1 222.1 1260.02 250.73 1291.93 282.56 1291.99 316.76 1258.41 358.38 1199.03 410.3 1122.13 468.33 1038.33 539.08 957.94 620.69 885.51 701.97 827.81 783.12 786.13 852.25 759.81 896.86 746.49 909.92 741.6 883.84 745.8 826.99 751.51 744.61 754.65 656.21 760.38 592.02 759.85 567.2 751.22 596.33 742.85 677.27 725.63 790.16 698.85 902.04 672.06 977.87 636.98 991.36 594.83 942.72 552.94 848.24 504.75 734.54 452.59 631.28 403.04 558.18 353.21 527.88 307.73 537.58 271.34 582.23 246.21 642.68 237.41 702.25 243.99 757.98 269.93 793.27 314.47 806.15 366.97 802.49 426.74 780.63 484.01 747.6 523.76 706.02 542.09 662 531.69 621.01 489.45 578.3 421.1 542.36 336.72 515.57 249.89 488.79 180.28 472.42 138.94 464.62 128.05 455.1 151.45 450.39 202.79 445.55 274.34 432.16 356.24 409.9 437.85 372.28 514.3 318.12 577.88 244.37 626.26 153.54 660.01 58.86 680.22 -33.33 690.93 -105.88 692.04 -143.47 690.28 -137.2 689.85 -83.74 686.28 -0.12 688.08 98.32 697.35 182.47 706.19 220.79 723.58 201.88 750.36 126.07 777.15 14.2 812.06 -93.26 853.74 -163.88 894.99 -182.69 941.91 -142.63 991.9 -58.81 1038.75 49.21 1084.62 155.61 1124.8 240.36 1164.49 303.69 1145.79 248.17 1081.32 186.82 1027.6 146.49 969.73 119.86 917.8 108.24 886.1 102.75 877.95 109.85 899.18 126.17 950.85 144.86 1025.89 168.53 1112.72 195.32Q1112.72 195.32 1112.72 195.32" opacity="0.54"></path><path d="M1063.82 326.62C1138.36 350.06 1197.24 382.87 1233.47 424.29 1246.57 466.13 1232.95 516.91 1196.55 574.92 1142.35 631.51 1076.27 691.49 1005.92 749.17 934.48 796.17 868.67 830.49 811.88 844.39 763.32 836.65 725.21 803.36 696.16 746.19 674.77 679.56 658.84 608.4 645.52 548.45 635.86 518.69 625.22 525.2 611.49 572.77 598.62 655 580.92 756.34 557.48 853.42 534.04 922.72 505.98 945 474.64 918.36 444.17 851.37 412.17 758.86 381.21 661.14 353.92 572.9 331.25 508.87 316.52 474.3 309.45 469.93 313.91 489.58 331.75 523.34 357.82 569.44 395.84 613.44 442.88 648.56 488.83 679.74 533.88 697.15 570.9 701.56 590.13 700.33 590.41 689.52 568.26 672.27 522.99 653.14 459.36 631.05 384.82 607.61 308.46 584.17 244.52 560.5 200.94 535.43 178.98 508.47 183.63 476.65 212.04 437.27 259.63 392.24 321.33 336.23 389.63 268.93 461.19 197.68 529.04 120.04 589.2 43.22 642.36 -21.25 685.48 -68.69 719.39 -88.73 745.88 -78.57 766.24 -35.56 783.14 35.48 796.24 116.02 809.43 195.19 824.81 253.14 839.25 270.75 857.75 243.74 881.19 174.45 904.63 77.37 931.9 -19.21 961.66 -92.41 990.48 -130.94 1019.93 -124.12 1047.44 -77.19 1071.16 -0.06 1089.39 92.11 1099.02 183.14 1101.25 264.72 1091.77 325.8 1069.33 364.26 1039.89 381.08 999.82 380.41 952.67 369.54 908.77 347.98 868.09 326.59 837.68 310.63 826.45 293.23 835.14 285.09 866.15 287.45 918.77 290.22 987.46 303.18 1063.82 326.62Q1063.82 326.62 1063.82 326.62" opacity="0.54"></path><path d="M1015.72 529.49C1080.09 549.57 1133.35 576.11 1170.76 607.53 1192.49 637.93 1194.46 671.1 1178.25 703.84 1146.94 731.91 1102.82 754.79 1050.75 768.08 992.76 771.25 933.76 760.1 877.36 732.65 822.69 695.3 773.7 645.21 731.22 587.78 692.65 536.1 659.86 492.6 631.91 467.06 606.58 468.78 584.05 498.7 563.17 556.33 543.07 634.6 523.16 722.67 503.07 805.04 482.98 866.89 463.66 894.75 445.87 886.23 428.86 845.47 414.86 779.13 405.37 699.46 398.5 615.55 398.21 539.32 405.81 478.3 417.33 434.81 437.48 411.05 465.83 404.02 495.89 412.72 531.07 430.23 568.14 450.67 612.35 487.63 636.77 531.93 600.58 532.46 555.42 529.29 498.09 517.72 433.72 497.63 367.96 477.54 310.8 449.88 267.61 415.17 238.63 379.96 228.88 337 237.56 287.15 261.81 237.29 300.15 182.18 347.99 125.26 403.14 73.87 460.9 27.52 517.4 -7.5 573.38 -26.81 624.51 -26.87 669.59 -4.29 711.32 35.8 747.25 94.01 777.99 163.2 806.26 228.14 831.19 283.05 853.71 316.06 875.48 316.83 896.27 284.89 916.36 223.04 936.45 140.67 954.89 56.67 971.01 -13.84 986.37 -63.72 998 -82.2 1004.53 -69.2 1008.61 -28.93 1005.77 32.57 995 105.17 980.89 183.52 958.6 257.43 928.95 321.11 898.78 374.89 864.84 414.88 830.6 442.67 793.52 465.45 790.45 481.06 837.77 490.23 888.71 496.7 949.93 509.39 1015.68 529.48Q1015.72 529.49 1015.72 529.49" opacity="0.94"></path><path d="M967.17 606.14C1101.44 652.51 1073.92 648.76 954.55 556.14 861.69 486.36 777.67 426.12 710.99 417.55 647.89 484.97 599.15 615.13 565.67 756.56 532.19 842.5 517.13 827.22 522.21 732.65 530.86 597.76 562.63 472.48 611.6 387.31 651.92 341.55 686.76 328.8 695.54 325.36 660.98 333.37 585.47 325.98 482.17 292.49 375.11 259.01 303.48 202.61 281.53 136.58 302.51 82 363.52 42.49 442.41 44.36 532.96 85.66 617.53 175.42 685.81 285.76 751.48 355.79 802.01 357.5 835.49 271.56 875.61 71.84 848.18 51.65 785.36 213.19 750.35 330.14 724.85 421.52 728.42 484.13 774.91 534.64 860.11 572.66 967.17 606.14Q967.17 606.14 967.17 606.14" opacity="0.57"></path><path d="M918.72 482.1C1003.1 508.88 1062.01 511.83 1088.08 492.42 1087.53 472.27 1057.79 432.96 1010.87 387.5 951.39 362.67 889.57 361.2 835.59 400.82 780.41 482.96 736.99 596.16 710.21 708.04 683.42 783.87 675.8 795.01 684.56 748.49 692.12 661.41 712.14 558.06 736.51 464.39 748.32 380.77 749.65 320.06 730.57 278.65 684.87 245.79 615.1 218.78 530.72 192 443.88 165.21 378.49 141.18 343.89 127.62 334.56 122.61 355.36 141.51 395.48 190.04 449.36 248.59 507.83 323.53 560.22 390.98 614.43 417.87 657.6 395.87 684.39 320.04 711.18 208.16 719.04 105.82 711.25 43.31 705.28 23.32 688.61 53.2 669.84 113.14 664.83 193.71 672.44 274.82 701.4 341.39 755.63 407.22 831.88 455.31 918.72 482.1Q918.72 482.1 918.72 482.1" opacity="0.28"></path><path d="M870.22 278.1C934.59 298.19 984.6 303.2 1016.04 297.72 1034.5 296.13 1034.36 292.14 1020.17 295.03 996.99 314.12 966.93 352.24 936.52 412.42 903.81 489.1 875.29 577.18 855.2 659.54 830.23 734.14 818.2 671.21 814.4 578.53 802.27 508.85 781.1 446.14 747.91 396.91 701.75 349.15 643.59 314.13 579.22 294.05 513.46 273.96 459.67 270.7 423.02 283.64 398.05 298.05 391.63 329.41 400.11 372.76 417.64 410.21 443.36 446.71 470.95 469.16 501.05 464.05 528.22 430.39 548.31 368.54 568.4 286.17 579.51 206.24 584.23 144.29 591.45 98.82 597.08 82.01 605.88 89.25 623.73 112.7 651.45 148.05 691.14 184.45 742.51 224.74 804.43 258 870.18 278.09Q870.22 278.1 870.22 278.1" opacity="0.52"></path><path d="M821.72 192.79C906.1 219.57 956.93 253.48 969.84 308.4 968.07 385.41 945.65 499.16 918.87 611.04 892.08 686.88 865.99 693.19 832.66 654.13 784.65 589.49 712.1 526.04 627.72 499.25 540.87 472.46 483.96 487.42 464.87 516.95 459.46 520.9 477.19 492.88 503.98 417.04 530.76 305.16 561.53 213.12 602.05 171.22 656.25 151.4 734.87 166 821.72 192.79Q821.72 192.79 821.72 192.79" opacity="0.76"></path></g></svg>