<svg id="visual" viewBox="0 0 960 540" width="960" height="540" xmlns="http://www.w3.org/2000/svg" xmlns:xlink="http://www.w3.org/1999/xlink" version="1.1"><rect x="0" y="0" width="960" height="540" fill="#FFFFFF"></rect><defs><linearGradient id="grad1_0" x1="43.8%" y1="100%" x2="100%" y2="0%"><stop offset="14.444444444444446%" stop-color="#ffffff" stop-opacity="1"></stop><stop offset="85.55555555555554%" stop-color="#ffffff" stop-opacity="1"></stop></linearGradient></defs><defs><linearGradient id="grad2_0" x1="0%" y1="100%" x2="56.3%" y2="0%"><stop offset="14.444444444444446%" stop-color="#ffffff" stop-opacity="1"></stop><stop offset="85.55555555555554%" stop-color="#ffffff" stop-opacity="1"></stop></linearGradient></defs><g transform="translate(960, 540)"><path d="M-432 0C-386.8 -31.6 -341.7 -63.1 -333.8 -108.5C-326 -153.8 -355.4 -213 -343 -249.2C-330.6 -285.5 -276.3 -298.9 -236.3 -325.2C-196.3 -351.6 -170.5 -390.9 -133.5 -410.9C-96.5 -430.8 -48.2 -431.4 0 -432L0 0Z" fill="#44cabc"></path></g><g transform="translate(0, 0)"><path d="M432 0C416 46.8 400 93.6 363.3 118C326.6 142.5 269.1 144.5 254 184.6C239 224.6 266.3 302.6 252.2 347.1C238 391.5 182.4 402.3 133.5 410.9C84.6 419.4 42.3 425.7 0 432L0 0Z" fill="#44cabc"></path></g></svg>