<svg id="visual" viewBox="0 0 960 540" width="960" height="540" xmlns="http://www.w3.org/2000/svg" xmlns:xlink="http://www.w3.org/1999/xlink" version="1.1"><path d="M0 39L32 39.8C64 40.7 128 42.3 192 44.2C256 46 320 48 384 50.7C448 53.3 512 56.7 576 53C640 49.3 704 38.7 768 33.3C832 28 896 28 928 28L960 28L960 0L928 0C896 0 832 0 768 0C704 0 640 0 576 0C512 0 448 0 384 0C320 0 256 0 192 0C128 0 64 0 32 0L0 0Z" fill="#057aff"></path><path d="M0 152L32 152C64 152 128 152 192 145.7C256 139.3 320 126.7 384 140.2C448 153.7 512 193.3 576 198.8C640 204.3 704 175.7 768 161.3C832 147 896 147 928 147L960 147L960 26L928 26C896 26 832 26 768 31.3C704 36.7 640 47.3 576 51C512 54.7 448 51.3 384 48.7C320 46 256 44 192 42.2C128 40.3 64 38.7 32 37.8L0 37Z" fill="#8fa6ff"></path><path d="M0 185L32 182.2C64 179.3 128 173.7 192 168.2C256 162.7 320 157.3 384 173.7C448 190 512 228 576 231.7C640 235.3 704 204.7 768 189.3C832 174 896 174 928 174L960 174L960 145L928 145C896 145 832 145 768 159.3C704 173.7 640 202.3 576 196.8C512 191.3 448 151.7 384 138.2C320 124.7 256 137.3 192 143.7C128 150 64 150 32 150L0 150Z" fill="#d1d6ff"></path><path d="M0 222L32 228.3C64 234.7 128 247.3 192 246.5C256 245.7 320 231.3 384 241.3C448 251.3 512 285.7 576 285.7C640 285.7 704 251.3 768 238.7C832 226 896 235 928 239.5L960 244L960 172L928 172C896 172 832 172 768 187.3C704 202.7 640 233.3 576 229.7C512 226 448 188 384 171.7C320 155.3 256 160.7 192 166.2C128 171.7 64 177.3 32 180.2L0 183Z" fill="#ffffff"></path><path d="M0 293L32 292C64 291 128 289 192 281.7C256 274.3 320 261.7 384 272.5C448 283.3 512 317.7 576 317.7C640 317.7 704 283.3 768 275.2C832 267 896 285 928 294L960 303L960 242L928 237.5C896 233 832 224 768 236.7C704 249.3 640 283.7 576 283.7C512 283.7 448 249.3 384 239.3C320 229.3 256 243.7 192 244.5C128 245.3 64 232.7 32 226.3L0 220Z" fill="#ffffff"></path><path d="M0 336L32 344C64 352 128 368 192 368.8C256 369.7 320 355.3 384 359.8C448 364.3 512 387.7 576 385C640 382.3 704 353.7 768 348.3C832 343 896 361 928 370L960 379L960 301L928 292C896 283 832 265 768 273.2C704 281.3 640 315.7 576 315.7C512 315.7 448 281.3 384 270.5C320 259.7 256 272.3 192 279.7C128 287 64 289 32 290L0 291Z" fill="#d1d6ff"></path><path d="M0 352L32 365.5C64 379 128 406 192 409.7C256 413.3 320 393.7 384 396.3C448 399 512 424 576 424C640 424 704 399 768 395.5C832 392 896 410 928 419L960 428L960 377L928 368C896 359 832 341 768 346.3C704 351.7 640 380.3 576 383C512 385.7 448 362.3 384 357.8C320 353.3 256 367.7 192 366.8C128 366 64 350 32 342L0 334Z" fill="#8fa6ff"></path><path d="M0 541L32 541C64 541 128 541 192 541C256 541 320 541 384 541C448 541 512 541 576 541C640 541 704 541 768 541C832 541 896 541 928 541L960 541L960 426L928 417C896 408 832 390 768 393.5C704 397 640 422 576 422C512 422 448 397 384 394.3C320 391.7 256 411.3 192 407.7C128 404 64 377 32 363.5L0 350Z" fill="#057aff"></path></svg>