<svg id="visual" viewBox="0 0 960 540" width="960" height="540" xmlns="http://www.w3.org/2000/svg" xmlns:xlink="http://www.w3.org/1999/xlink" version="1.1"><path d="M0 28L32 34.3C64 40.7 128 53.3 192 54.2C256 55 320 44 384 41.3C448 38.7 512 44.3 576 49.8C640 55.3 704 60.7 768 56.2C832 51.7 896 37.3 928 30.2L960 23L960 0L928 0C896 0 832 0 768 0C704 0 640 0 576 0C512 0 448 0 384 0C320 0 256 0 192 0C128 0 64 0 32 0L0 0Z" fill="#1bc0af"></path><path d="M0 168L32 168C64 168 128 168 192 155.5C256 143 320 118 384 114.5C448 111 512 129 576 133.5C640 138 704 129 768 122.7C832 116.3 896 112.7 928 110.8L960 109L960 21L928 28.2C896 35.3 832 49.7 768 54.2C704 58.7 640 53.3 576 47.8C512 42.3 448 36.7 384 39.3C320 42 256 53 192 52.2C128 51.3 64 38.7 32 32.3L0 26Z" fill="#93dbcf"></path><path d="M0 201L32 207.3C64 213.7 128 226.3 192 218.2C256 210 320 181 384 178.2C448 175.3 512 198.7 576 200.5C640 202.3 704 182.7 768 170.2C832 157.7 896 152.3 928 149.7L960 147L960 107L928 108.8C896 110.7 832 114.3 768 120.7C704 127 640 136 576 131.5C512 127 448 109 384 112.5C320 116 256 141 192 153.5C128 166 64 166 32 166L0 166Z" fill="#e1f5f1"></path><path d="M0 325L32 331.3C64 337.7 128 350.3 192 338.7C256 327 320 291 384 293.7C448 296.3 512 337.7 576 338.5C640 339.3 704 299.7 768 277.2C832 254.7 896 249.3 928 246.7L960 244L960 145L928 147.7C896 150.3 832 155.7 768 168.2C704 180.7 640 200.3 576 198.5C512 196.7 448 173.3 384 176.2C320 179 256 208 192 216.2C128 224.3 64 211.7 32 205.3L0 199Z" fill="#ffffff"></path><path d="M0 465L32 464.2C64 463.3 128 461.7 192 464.5C256 467.3 320 474.7 384 469.3C448 464 512 446 576 441.5C640 437 704 446 768 451.3C832 456.7 896 458.3 928 459.2L960 460L960 242L928 244.7C896 247.3 832 252.7 768 275.2C704 297.7 640 337.3 576 336.5C512 335.7 448 294.3 384 291.7C320 289 256 325 192 336.7C128 348.3 64 335.7 32 329.3L0 323Z" fill="#e1f5f1"></path><path d="M0 503L32 500.3C64 497.7 128 492.3 192 495C256 497.7 320 508.3 384 510.2C448 512 512 505 576 501.5C640 498 704 498 768 497C832 496 896 494 928 493L960 492L960 458L928 457.2C896 456.3 832 454.7 768 449.3C704 444 640 435 576 439.5C512 444 448 462 384 467.3C320 472.7 256 465.3 192 462.5C128 459.7 64 461.3 32 462.2L0 463Z" fill="#93dbcf"></path><path d="M0 541L32 541C64 541 128 541 192 541C256 541 320 541 384 541C448 541 512 541 576 541C640 541 704 541 768 541C832 541 896 541 928 541L960 541L960 490L928 491C896 492 832 494 768 495C704 496 640 496 576 499.5C512 503 448 510 384 508.2C320 506.3 256 495.7 192 493C128 490.3 64 495.7 32 498.3L0 501Z" fill="#1bc0af"></path></svg>