<svg id="visual" viewBox="0 0 3000 150" width="3000" height="150" xmlns="http://www.w3.org/2000/svg" xmlns:xlink="http://www.w3.org/1999/xlink" version="1.1"><path d="M0 60L55.5 62.8C111 65.7 222 71.3 333.2 65.7C444.3 60 555.7 43 666.8 41.3C778 39.7 889 53.3 1000 59.7C1111 66 1222 65 1333.2 67.3C1444.3 69.7 1555.7 75.3 1666.8 76C1778 76.7 1889 72.3 2000 61.7C2111 51 2222 34 2333.2 27.3C2444.3 20.7 2555.7 24.3 2666.8 30.8C2778 37.3 2889 46.7 2944.5 51.3L3000 56L3000 151L2944.5 151C2889 151 2778 151 2666.8 151C2555.7 151 2444.3 151 2333.2 151C2222 151 2111 151 2000 151C1889 151 1778 151 1666.8 151C1555.7 151 1444.3 151 1333.2 151C1222 151 1111 151 1000 151C889 151 778 151 666.8 151C555.7 151 444.3 151 333.2 151C222 151 111 151 55.5 151L0 151Z" fill="#60697b"></path><path d="M0 89L55.5 85.5C111 82 222 75 333.2 69.3C444.3 63.7 555.7 59.3 666.8 56.7C778 54 889 53 1000 57.5C1111 62 1222 72 1333.2 73.5C1444.3 75 1555.7 68 1666.8 69.2C1778 70.3 1889 79.7 2000 88C2111 96.3 2222 103.7 2333.2 100.5C2444.3 97.3 2555.7 83.7 2666.8 83.3C2778 83 2889 96 2944.5 102.5L3000 109L3000 151L2944.5 151C2889 151 2778 151 2666.8 151C2555.7 151 2444.3 151 2333.2 151C2222 151 2111 151 2000 151C1889 151 1778 151 1666.8 151C1555.7 151 1444.3 151 1333.2 151C1222 151 1111 151 1000 151C889 151 778 151 666.8 151C555.7 151 444.3 151 333.2 151C222 151 111 151 55.5 151L0 151Z" fill="#3d4451"></path><path d="M0 135L55.5 129.2C111 123.3 222 111.7 333.2 104.8C444.3 98 555.7 96 666.8 99.3C778 102.7 889 111.3 1000 111.8C1111 112.3 1222 104.7 1333.2 100.5C1444.3 96.3 1555.7 95.7 1666.8 102.3C1778 109 1889 123 2000 128.3C2111 133.7 2222 130.3 2333.2 125.2C2444.3 120 2555.7 113 2666.8 112.2C2778 111.3 2889 116.7 2944.5 119.3L3000 122L3000 151L2944.5 151C2889 151 2778 151 2666.8 151C2555.7 151 2444.3 151 2333.2 151C2222 151 2111 151 2000 151C1889 151 1778 151 1666.8 151C1555.7 151 1444.3 151 1333.2 151C1222 151 1111 151 1000 151C889 151 778 151 666.8 151C555.7 151 444.3 151 333.2 151C222 151 111 151 55.5 151L0 151Z" fill="#2b3440"></path></svg>